<svg width="120" height="40" viewBox="0 0 120 40" fill="none" xmlns="http://www.w3.org/2000/svg">
  <g id="aws-logo">
    <!-- AWS Arrow -->
    <path d="M35 20C35 20 30 24 20 24C10 24 5 20 5 20" stroke="#FF9900" stroke-width="2" stroke-linecap="round"/>
    <path d="M30 25L35 20L30 22" stroke="#FF9900" stroke-width="2" stroke-linecap="round" stroke-linejoin="round"/>
    
    <!-- Text -->
    <path d="M45 25L49 15H51L55 25H53L52 22H48L47 25H45ZM48.5 20H51.5L50 16L48.5 20Z" fill="currentColor"/>
    <path d="M57 25L60 16L63 25L66 15H68L64 25H62L59 16L56 25H54L50 15H52L55 24L57 25Z" fill="currentColor"/>
    <path d="M70 23.5L71.5 22C72 22.75 72.75 23 73.5 23C74.5 23 75 22.5 75 22C75 21.5 74.5 21.25 73.5 21L72.5 20.75C71 20.25 70 19.5 70 18C70 16.5 71.5 15.5 73.5 15.5C75 15.5 76.25 16 77 17L75.5 18.5C75 17.75 74.25 17.5 73.5 17.5C72.5 17.5 72 18 72 18.5C72 19 72.5 19.25 73.5 19.5L74.5 19.75C76 20.25 77 21 77 22.5C77 24 75.5 25 73.5 25C72 25 70.75 24.5 70 23.5Z" fill="currentColor"/>
    
    <!-- Spot indicator -->
    <path d="M85 20.5C85 20.5 86 19 88 19C90 19 91 20.5 91 20.5C91 20.5 90 22 88 22C86 22 85 20.5 85 20.5Z" fill="#FF9900"/>
    <path d="M94 23.5L95.5 22C96 22.75 96.75 23 97.5 23C98.5 23 99 22.5 99 22C99 21.5 98.5 21.25 97.5 21L96.5 20.75C95 20.25 94 19.5 94 18C94 16.5 95.5 15.5 97.5 15.5C99 15.5 100.25 16 101 17L99.5 18.5C99 17.75 98.25 17.5 97.5 17.5C96.5 17.5 96 18 96 18.5C96 19 96.5 19.25 97.5 19.5L98.5 19.75C100 20.25 101 21 101 22.5C101 24 99.5 25 97.5 25C96 25 94.75 24.5 94 23.5Z" fill="currentColor"/>
    <path d="M103 21C103 18.5 104.5 17 107 17C109.5 17 111 18.5 111 21C111 23.5 109.5 25 107 25C104.5 25 103 23.5 103 21ZM105 21C105 22.5 105.5 23 107 23C108.5 23 109 22.5 109 21C109 19.5 108.5 19 107 19C105.5 19 105 19.5 105 21Z" fill="currentColor"/>
    <path d="M113 17.5H115V18.5C115.5 17.8 116.5 17.5 117.5 17.5V19.5C116 19.5 115 20 115 21.5V25H113V17.5Z" fill="currentColor"/>
  </g>
</svg>